<mxfile host="app.diagrams.net" modified="2024-04-22T01:24:40.761Z" agent="Mozilla/5.0 (Windows NT 10.0; Win64; x64) AppleWebKit/537.36 (KHTML, like Gecko) Chrome/121.0.0.0 Safari/537.36 OPR/107.0.0.0" etag="ruZHIc0vzI2FCHb75eZY" version="24.2.5" type="github">
  <diagram id="C5RBs43oDa-KdzZeNtuy" name="Page-1">
    <mxGraphModel dx="1525" dy="665" grid="1" gridSize="10" guides="1" tooltips="1" connect="1" arrows="1" fold="1" page="1" pageScale="1" pageWidth="827" pageHeight="1169" math="0" shadow="0">
      <root>
        <mxCell id="WIyWlLk6GJQsqaUBKTNV-0" />
        <mxCell id="WIyWlLk6GJQsqaUBKTNV-1" parent="WIyWlLk6GJQsqaUBKTNV-0" />
        <mxCell id="1u0SRNd5bN_RfT2QFFP8-19" value="Clientes" style="shape=table;startSize=30;container=1;collapsible=0;childLayout=tableLayout;fixedRows=1;rowLines=0;fontStyle=0;fontSize=16;labelBackgroundColor=none;" vertex="1" parent="WIyWlLk6GJQsqaUBKTNV-1">
          <mxGeometry x="50" y="60" width="180" height="160" as="geometry" />
        </mxCell>
        <mxCell id="1u0SRNd5bN_RfT2QFFP8-20" value="" style="shape=tableRow;horizontal=0;startSize=0;swimlaneHead=0;swimlaneBody=0;top=0;left=0;bottom=0;right=0;collapsible=0;dropTarget=0;fillColor=none;points=[[0,0.5],[1,0.5]];portConstraint=eastwest;fontSize=16;labelBackgroundColor=none;" vertex="1" parent="1u0SRNd5bN_RfT2QFFP8-19">
          <mxGeometry y="30" width="180" height="30" as="geometry" />
        </mxCell>
        <mxCell id="1u0SRNd5bN_RfT2QFFP8-21" value="" style="shape=partialRectangle;html=1;whiteSpace=wrap;connectable=0;fillColor=none;top=0;left=0;bottom=0;right=0;overflow=hidden;pointerEvents=1;fontSize=16;labelBackgroundColor=none;" vertex="1" parent="1u0SRNd5bN_RfT2QFFP8-20">
          <mxGeometry width="40" height="30" as="geometry">
            <mxRectangle width="40" height="30" as="alternateBounds" />
          </mxGeometry>
        </mxCell>
        <mxCell id="1u0SRNd5bN_RfT2QFFP8-22" value="Id_Cliente" style="shape=partialRectangle;html=1;whiteSpace=wrap;connectable=0;fillColor=none;top=0;left=0;bottom=0;right=0;align=left;spacingLeft=6;overflow=hidden;fontSize=16;labelBackgroundColor=none;" vertex="1" parent="1u0SRNd5bN_RfT2QFFP8-20">
          <mxGeometry x="40" width="140" height="30" as="geometry">
            <mxRectangle width="140" height="30" as="alternateBounds" />
          </mxGeometry>
        </mxCell>
        <mxCell id="1u0SRNd5bN_RfT2QFFP8-23" value="" style="shape=tableRow;horizontal=0;startSize=0;swimlaneHead=0;swimlaneBody=0;top=0;left=0;bottom=0;right=0;collapsible=0;dropTarget=0;fillColor=none;points=[[0,0.5],[1,0.5]];portConstraint=eastwest;fontSize=16;labelBackgroundColor=none;" vertex="1" parent="1u0SRNd5bN_RfT2QFFP8-19">
          <mxGeometry y="60" width="180" height="30" as="geometry" />
        </mxCell>
        <mxCell id="1u0SRNd5bN_RfT2QFFP8-24" value="" style="shape=partialRectangle;html=1;whiteSpace=wrap;connectable=0;fillColor=none;top=0;left=0;bottom=0;right=0;overflow=hidden;fontSize=16;labelBackgroundColor=none;" vertex="1" parent="1u0SRNd5bN_RfT2QFFP8-23">
          <mxGeometry width="40" height="30" as="geometry">
            <mxRectangle width="40" height="30" as="alternateBounds" />
          </mxGeometry>
        </mxCell>
        <mxCell id="1u0SRNd5bN_RfT2QFFP8-25" value="Nombre" style="shape=partialRectangle;html=1;whiteSpace=wrap;connectable=0;fillColor=none;top=0;left=0;bottom=0;right=0;align=left;spacingLeft=6;overflow=hidden;fontSize=16;labelBackgroundColor=none;" vertex="1" parent="1u0SRNd5bN_RfT2QFFP8-23">
          <mxGeometry x="40" width="140" height="30" as="geometry">
            <mxRectangle width="140" height="30" as="alternateBounds" />
          </mxGeometry>
        </mxCell>
        <mxCell id="1u0SRNd5bN_RfT2QFFP8-26" value="" style="shape=tableRow;horizontal=0;startSize=0;swimlaneHead=0;swimlaneBody=0;top=0;left=0;bottom=0;right=0;collapsible=0;dropTarget=0;fillColor=none;points=[[0,0.5],[1,0.5]];portConstraint=eastwest;fontSize=16;labelBackgroundColor=none;" vertex="1" parent="1u0SRNd5bN_RfT2QFFP8-19">
          <mxGeometry y="90" width="180" height="30" as="geometry" />
        </mxCell>
        <mxCell id="1u0SRNd5bN_RfT2QFFP8-27" value="" style="shape=partialRectangle;html=1;whiteSpace=wrap;connectable=0;fillColor=none;top=0;left=0;bottom=0;right=0;overflow=hidden;fontSize=16;labelBackgroundColor=none;" vertex="1" parent="1u0SRNd5bN_RfT2QFFP8-26">
          <mxGeometry width="40" height="30" as="geometry">
            <mxRectangle width="40" height="30" as="alternateBounds" />
          </mxGeometry>
        </mxCell>
        <mxCell id="1u0SRNd5bN_RfT2QFFP8-28" value="Direccion" style="shape=partialRectangle;html=1;whiteSpace=wrap;connectable=0;fillColor=none;top=0;left=0;bottom=0;right=0;align=left;spacingLeft=6;overflow=hidden;fontSize=16;labelBackgroundColor=none;" vertex="1" parent="1u0SRNd5bN_RfT2QFFP8-26">
          <mxGeometry x="40" width="140" height="30" as="geometry">
            <mxRectangle width="140" height="30" as="alternateBounds" />
          </mxGeometry>
        </mxCell>
        <mxCell id="1u0SRNd5bN_RfT2QFFP8-29" value="Telefono" style="shape=partialRectangle;html=1;whiteSpace=wrap;connectable=0;fillColor=none;top=0;left=0;bottom=0;right=0;align=left;spacingLeft=6;overflow=hidden;fontSize=16;labelBackgroundColor=none;" vertex="1" parent="WIyWlLk6GJQsqaUBKTNV-1">
          <mxGeometry x="90" y="180" width="140" height="30" as="geometry">
            <mxRectangle width="140" height="30" as="alternateBounds" />
          </mxGeometry>
        </mxCell>
        <mxCell id="1u0SRNd5bN_RfT2QFFP8-30" value="Eventos" style="shape=table;startSize=30;container=1;collapsible=0;childLayout=tableLayout;fixedRows=1;rowLines=0;fontStyle=0;fontSize=16;labelBackgroundColor=none;" vertex="1" parent="WIyWlLk6GJQsqaUBKTNV-1">
          <mxGeometry x="250" y="60" width="180" height="200" as="geometry" />
        </mxCell>
        <mxCell id="1u0SRNd5bN_RfT2QFFP8-31" value="" style="shape=tableRow;horizontal=0;startSize=0;swimlaneHead=0;swimlaneBody=0;top=0;left=0;bottom=0;right=0;collapsible=0;dropTarget=0;fillColor=none;points=[[0,0.5],[1,0.5]];portConstraint=eastwest;fontSize=16;labelBackgroundColor=none;" vertex="1" parent="1u0SRNd5bN_RfT2QFFP8-30">
          <mxGeometry y="30" width="180" height="30" as="geometry" />
        </mxCell>
        <mxCell id="1u0SRNd5bN_RfT2QFFP8-32" value="" style="shape=partialRectangle;html=1;whiteSpace=wrap;connectable=0;fillColor=none;top=0;left=0;bottom=0;right=0;overflow=hidden;pointerEvents=1;fontSize=16;labelBackgroundColor=none;" vertex="1" parent="1u0SRNd5bN_RfT2QFFP8-31">
          <mxGeometry width="40" height="30" as="geometry">
            <mxRectangle width="40" height="30" as="alternateBounds" />
          </mxGeometry>
        </mxCell>
        <mxCell id="1u0SRNd5bN_RfT2QFFP8-33" value="Id_Eventos" style="shape=partialRectangle;html=1;whiteSpace=wrap;connectable=0;fillColor=none;top=0;left=0;bottom=0;right=0;align=left;spacingLeft=6;overflow=hidden;fontSize=16;labelBackgroundColor=none;" vertex="1" parent="1u0SRNd5bN_RfT2QFFP8-31">
          <mxGeometry x="40" width="140" height="30" as="geometry">
            <mxRectangle width="140" height="30" as="alternateBounds" />
          </mxGeometry>
        </mxCell>
        <mxCell id="1u0SRNd5bN_RfT2QFFP8-34" value="" style="shape=tableRow;horizontal=0;startSize=0;swimlaneHead=0;swimlaneBody=0;top=0;left=0;bottom=0;right=0;collapsible=0;dropTarget=0;fillColor=none;points=[[0,0.5],[1,0.5]];portConstraint=eastwest;fontSize=16;labelBackgroundColor=none;" vertex="1" parent="1u0SRNd5bN_RfT2QFFP8-30">
          <mxGeometry y="60" width="180" height="30" as="geometry" />
        </mxCell>
        <mxCell id="1u0SRNd5bN_RfT2QFFP8-35" value="" style="shape=partialRectangle;html=1;whiteSpace=wrap;connectable=0;fillColor=none;top=0;left=0;bottom=0;right=0;overflow=hidden;fontSize=16;labelBackgroundColor=none;" vertex="1" parent="1u0SRNd5bN_RfT2QFFP8-34">
          <mxGeometry width="40" height="30" as="geometry">
            <mxRectangle width="40" height="30" as="alternateBounds" />
          </mxGeometry>
        </mxCell>
        <mxCell id="1u0SRNd5bN_RfT2QFFP8-36" value="Nombre" style="shape=partialRectangle;html=1;whiteSpace=wrap;connectable=0;fillColor=none;top=0;left=0;bottom=0;right=0;align=left;spacingLeft=6;overflow=hidden;fontSize=16;labelBackgroundColor=none;" vertex="1" parent="1u0SRNd5bN_RfT2QFFP8-34">
          <mxGeometry x="40" width="140" height="30" as="geometry">
            <mxRectangle width="140" height="30" as="alternateBounds" />
          </mxGeometry>
        </mxCell>
        <mxCell id="1u0SRNd5bN_RfT2QFFP8-37" value="" style="shape=tableRow;horizontal=0;startSize=0;swimlaneHead=0;swimlaneBody=0;top=0;left=0;bottom=0;right=0;collapsible=0;dropTarget=0;fillColor=none;points=[[0,0.5],[1,0.5]];portConstraint=eastwest;fontSize=16;labelBackgroundColor=none;" vertex="1" parent="1u0SRNd5bN_RfT2QFFP8-30">
          <mxGeometry y="90" width="180" height="30" as="geometry" />
        </mxCell>
        <mxCell id="1u0SRNd5bN_RfT2QFFP8-38" value="" style="shape=partialRectangle;html=1;whiteSpace=wrap;connectable=0;fillColor=none;top=0;left=0;bottom=0;right=0;overflow=hidden;fontSize=16;labelBackgroundColor=none;" vertex="1" parent="1u0SRNd5bN_RfT2QFFP8-37">
          <mxGeometry width="40" height="30" as="geometry">
            <mxRectangle width="40" height="30" as="alternateBounds" />
          </mxGeometry>
        </mxCell>
        <mxCell id="1u0SRNd5bN_RfT2QFFP8-39" value="Fecha" style="shape=partialRectangle;html=1;whiteSpace=wrap;connectable=0;fillColor=none;top=0;left=0;bottom=0;right=0;align=left;spacingLeft=6;overflow=hidden;fontSize=16;labelBackgroundColor=none;" vertex="1" parent="1u0SRNd5bN_RfT2QFFP8-37">
          <mxGeometry x="40" width="140" height="30" as="geometry">
            <mxRectangle width="140" height="30" as="alternateBounds" />
          </mxGeometry>
        </mxCell>
        <mxCell id="1u0SRNd5bN_RfT2QFFP8-40" value="" style="shape=tableRow;horizontal=0;startSize=0;swimlaneHead=0;swimlaneBody=0;top=0;left=0;bottom=0;right=0;collapsible=0;dropTarget=0;fillColor=none;points=[[0,0.5],[1,0.5]];portConstraint=eastwest;fontSize=16;labelBackgroundColor=none;" vertex="1" parent="WIyWlLk6GJQsqaUBKTNV-1">
          <mxGeometry x="250" y="180" width="180" height="30" as="geometry" />
        </mxCell>
        <mxCell id="1u0SRNd5bN_RfT2QFFP8-41" value="" style="shape=partialRectangle;html=1;whiteSpace=wrap;connectable=0;fillColor=none;top=0;left=0;bottom=0;right=0;overflow=hidden;fontSize=16;labelBackgroundColor=none;" vertex="1" parent="1u0SRNd5bN_RfT2QFFP8-40">
          <mxGeometry width="40" height="30" as="geometry">
            <mxRectangle width="40" height="30" as="alternateBounds" />
          </mxGeometry>
        </mxCell>
        <mxCell id="1u0SRNd5bN_RfT2QFFP8-42" value="Id_Ubicacion" style="shape=partialRectangle;html=1;whiteSpace=wrap;connectable=0;fillColor=none;top=0;left=0;bottom=0;right=0;align=left;spacingLeft=6;overflow=hidden;fontSize=16;labelBackgroundColor=none;" vertex="1" parent="1u0SRNd5bN_RfT2QFFP8-40">
          <mxGeometry x="40" width="140" height="30" as="geometry">
            <mxRectangle width="140" height="30" as="alternateBounds" />
          </mxGeometry>
        </mxCell>
        <mxCell id="1u0SRNd5bN_RfT2QFFP8-43" value="" style="shape=tableRow;horizontal=0;startSize=0;swimlaneHead=0;swimlaneBody=0;top=0;left=0;bottom=0;right=0;collapsible=0;dropTarget=0;fillColor=none;points=[[0,0.5],[1,0.5]];portConstraint=eastwest;fontSize=16;labelBackgroundColor=none;" vertex="1" parent="WIyWlLk6GJQsqaUBKTNV-1">
          <mxGeometry x="250" y="210" width="180" height="30" as="geometry" />
        </mxCell>
        <mxCell id="1u0SRNd5bN_RfT2QFFP8-44" value="" style="shape=partialRectangle;html=1;whiteSpace=wrap;connectable=0;fillColor=none;top=0;left=0;bottom=0;right=0;overflow=hidden;fontSize=16;labelBackgroundColor=none;" vertex="1" parent="1u0SRNd5bN_RfT2QFFP8-43">
          <mxGeometry width="40" height="30" as="geometry">
            <mxRectangle width="40" height="30" as="alternateBounds" />
          </mxGeometry>
        </mxCell>
        <mxCell id="1u0SRNd5bN_RfT2QFFP8-45" value="Id_Proveedor" style="shape=partialRectangle;html=1;whiteSpace=wrap;connectable=0;fillColor=none;top=0;left=0;bottom=0;right=0;align=left;spacingLeft=6;overflow=hidden;fontSize=16;labelBackgroundColor=none;" vertex="1" parent="1u0SRNd5bN_RfT2QFFP8-43">
          <mxGeometry x="40" width="140" height="30" as="geometry">
            <mxRectangle width="140" height="30" as="alternateBounds" />
          </mxGeometry>
        </mxCell>
        <mxCell id="1u0SRNd5bN_RfT2QFFP8-46" value="Participantes" style="shape=table;startSize=30;container=1;collapsible=0;childLayout=tableLayout;fixedRows=1;rowLines=0;fontStyle=0;fontSize=16;labelBackgroundColor=none;" vertex="1" parent="WIyWlLk6GJQsqaUBKTNV-1">
          <mxGeometry x="460" y="60" width="210" height="130" as="geometry" />
        </mxCell>
        <mxCell id="1u0SRNd5bN_RfT2QFFP8-47" value="" style="shape=tableRow;horizontal=0;startSize=0;swimlaneHead=0;swimlaneBody=0;top=0;left=0;bottom=0;right=0;collapsible=0;dropTarget=0;fillColor=none;points=[[0,0.5],[1,0.5]];portConstraint=eastwest;fontSize=16;labelBackgroundColor=none;" vertex="1" parent="1u0SRNd5bN_RfT2QFFP8-46">
          <mxGeometry y="30" width="210" height="30" as="geometry" />
        </mxCell>
        <mxCell id="1u0SRNd5bN_RfT2QFFP8-48" value="" style="shape=partialRectangle;html=1;whiteSpace=wrap;connectable=0;fillColor=none;top=0;left=0;bottom=0;right=0;overflow=hidden;pointerEvents=1;fontSize=16;labelBackgroundColor=none;" vertex="1" parent="1u0SRNd5bN_RfT2QFFP8-47">
          <mxGeometry width="46" height="30" as="geometry">
            <mxRectangle width="46" height="30" as="alternateBounds" />
          </mxGeometry>
        </mxCell>
        <mxCell id="1u0SRNd5bN_RfT2QFFP8-49" value="Id_Participantes" style="shape=partialRectangle;html=1;whiteSpace=wrap;connectable=0;fillColor=none;top=0;left=0;bottom=0;right=0;align=left;spacingLeft=6;overflow=hidden;fontSize=16;labelBackgroundColor=none;" vertex="1" parent="1u0SRNd5bN_RfT2QFFP8-47">
          <mxGeometry x="46" width="164" height="30" as="geometry">
            <mxRectangle width="164" height="30" as="alternateBounds" />
          </mxGeometry>
        </mxCell>
        <mxCell id="1u0SRNd5bN_RfT2QFFP8-50" value="" style="shape=tableRow;horizontal=0;startSize=0;swimlaneHead=0;swimlaneBody=0;top=0;left=0;bottom=0;right=0;collapsible=0;dropTarget=0;fillColor=none;points=[[0,0.5],[1,0.5]];portConstraint=eastwest;fontSize=16;labelBackgroundColor=none;" vertex="1" parent="1u0SRNd5bN_RfT2QFFP8-46">
          <mxGeometry y="60" width="210" height="30" as="geometry" />
        </mxCell>
        <mxCell id="1u0SRNd5bN_RfT2QFFP8-51" value="" style="shape=partialRectangle;html=1;whiteSpace=wrap;connectable=0;fillColor=none;top=0;left=0;bottom=0;right=0;overflow=hidden;fontSize=16;labelBackgroundColor=none;" vertex="1" parent="1u0SRNd5bN_RfT2QFFP8-50">
          <mxGeometry width="46" height="30" as="geometry">
            <mxRectangle width="46" height="30" as="alternateBounds" />
          </mxGeometry>
        </mxCell>
        <mxCell id="1u0SRNd5bN_RfT2QFFP8-52" value="Nombre" style="shape=partialRectangle;html=1;whiteSpace=wrap;connectable=0;fillColor=none;top=0;left=0;bottom=0;right=0;align=left;spacingLeft=6;overflow=hidden;fontSize=16;labelBackgroundColor=none;" vertex="1" parent="1u0SRNd5bN_RfT2QFFP8-50">
          <mxGeometry x="46" width="164" height="30" as="geometry">
            <mxRectangle width="164" height="30" as="alternateBounds" />
          </mxGeometry>
        </mxCell>
        <mxCell id="1u0SRNd5bN_RfT2QFFP8-53" value="" style="shape=tableRow;horizontal=0;startSize=0;swimlaneHead=0;swimlaneBody=0;top=0;left=0;bottom=0;right=0;collapsible=0;dropTarget=0;fillColor=none;points=[[0,0.5],[1,0.5]];portConstraint=eastwest;fontSize=16;labelBackgroundColor=none;" vertex="1" parent="1u0SRNd5bN_RfT2QFFP8-46">
          <mxGeometry y="90" width="210" height="30" as="geometry" />
        </mxCell>
        <mxCell id="1u0SRNd5bN_RfT2QFFP8-54" value="" style="shape=partialRectangle;html=1;whiteSpace=wrap;connectable=0;fillColor=none;top=0;left=0;bottom=0;right=0;overflow=hidden;fontSize=16;labelBackgroundColor=none;" vertex="1" parent="1u0SRNd5bN_RfT2QFFP8-53">
          <mxGeometry width="46" height="30" as="geometry">
            <mxRectangle width="46" height="30" as="alternateBounds" />
          </mxGeometry>
        </mxCell>
        <mxCell id="1u0SRNd5bN_RfT2QFFP8-55" value="Correo_Electronico" style="shape=partialRectangle;html=1;whiteSpace=wrap;connectable=0;fillColor=none;top=0;left=0;bottom=0;right=0;align=left;spacingLeft=6;overflow=hidden;fontSize=16;labelBackgroundColor=none;" vertex="1" parent="1u0SRNd5bN_RfT2QFFP8-53">
          <mxGeometry x="46" width="164" height="30" as="geometry">
            <mxRectangle width="164" height="30" as="alternateBounds" />
          </mxGeometry>
        </mxCell>
        <mxCell id="1u0SRNd5bN_RfT2QFFP8-56" value="Ubicaciones" style="shape=table;startSize=30;container=1;collapsible=0;childLayout=tableLayout;fixedRows=1;rowLines=0;fontStyle=0;fontSize=16;labelBackgroundColor=none;" vertex="1" parent="WIyWlLk6GJQsqaUBKTNV-1">
          <mxGeometry x="40" y="320" width="180" height="120" as="geometry" />
        </mxCell>
        <mxCell id="1u0SRNd5bN_RfT2QFFP8-57" value="" style="shape=tableRow;horizontal=0;startSize=0;swimlaneHead=0;swimlaneBody=0;top=0;left=0;bottom=0;right=0;collapsible=0;dropTarget=0;fillColor=none;points=[[0,0.5],[1,0.5]];portConstraint=eastwest;fontSize=16;labelBackgroundColor=none;" vertex="1" parent="1u0SRNd5bN_RfT2QFFP8-56">
          <mxGeometry y="30" width="180" height="30" as="geometry" />
        </mxCell>
        <mxCell id="1u0SRNd5bN_RfT2QFFP8-58" value="" style="shape=partialRectangle;html=1;whiteSpace=wrap;connectable=0;fillColor=none;top=0;left=0;bottom=0;right=0;overflow=hidden;pointerEvents=1;fontSize=16;labelBackgroundColor=none;" vertex="1" parent="1u0SRNd5bN_RfT2QFFP8-57">
          <mxGeometry width="40" height="30" as="geometry">
            <mxRectangle width="40" height="30" as="alternateBounds" />
          </mxGeometry>
        </mxCell>
        <mxCell id="1u0SRNd5bN_RfT2QFFP8-59" value="Id_Ubicaciones" style="shape=partialRectangle;html=1;whiteSpace=wrap;connectable=0;fillColor=none;top=0;left=0;bottom=0;right=0;align=left;spacingLeft=6;overflow=hidden;fontSize=16;labelBackgroundColor=none;" vertex="1" parent="1u0SRNd5bN_RfT2QFFP8-57">
          <mxGeometry x="40" width="140" height="30" as="geometry">
            <mxRectangle width="140" height="30" as="alternateBounds" />
          </mxGeometry>
        </mxCell>
        <mxCell id="1u0SRNd5bN_RfT2QFFP8-60" value="" style="shape=tableRow;horizontal=0;startSize=0;swimlaneHead=0;swimlaneBody=0;top=0;left=0;bottom=0;right=0;collapsible=0;dropTarget=0;fillColor=none;points=[[0,0.5],[1,0.5]];portConstraint=eastwest;fontSize=16;labelBackgroundColor=none;" vertex="1" parent="1u0SRNd5bN_RfT2QFFP8-56">
          <mxGeometry y="60" width="180" height="30" as="geometry" />
        </mxCell>
        <mxCell id="1u0SRNd5bN_RfT2QFFP8-61" value="" style="shape=partialRectangle;html=1;whiteSpace=wrap;connectable=0;fillColor=none;top=0;left=0;bottom=0;right=0;overflow=hidden;fontSize=16;labelBackgroundColor=none;" vertex="1" parent="1u0SRNd5bN_RfT2QFFP8-60">
          <mxGeometry width="40" height="30" as="geometry">
            <mxRectangle width="40" height="30" as="alternateBounds" />
          </mxGeometry>
        </mxCell>
        <mxCell id="1u0SRNd5bN_RfT2QFFP8-62" value="Nombre" style="shape=partialRectangle;html=1;whiteSpace=wrap;connectable=0;fillColor=none;top=0;left=0;bottom=0;right=0;align=left;spacingLeft=6;overflow=hidden;fontSize=16;labelBackgroundColor=none;" vertex="1" parent="1u0SRNd5bN_RfT2QFFP8-60">
          <mxGeometry x="40" width="140" height="30" as="geometry">
            <mxRectangle width="140" height="30" as="alternateBounds" />
          </mxGeometry>
        </mxCell>
        <mxCell id="1u0SRNd5bN_RfT2QFFP8-63" value="" style="shape=tableRow;horizontal=0;startSize=0;swimlaneHead=0;swimlaneBody=0;top=0;left=0;bottom=0;right=0;collapsible=0;dropTarget=0;fillColor=none;points=[[0,0.5],[1,0.5]];portConstraint=eastwest;fontSize=16;labelBackgroundColor=none;" vertex="1" parent="1u0SRNd5bN_RfT2QFFP8-56">
          <mxGeometry y="90" width="180" height="30" as="geometry" />
        </mxCell>
        <mxCell id="1u0SRNd5bN_RfT2QFFP8-64" value="" style="shape=partialRectangle;html=1;whiteSpace=wrap;connectable=0;fillColor=none;top=0;left=0;bottom=0;right=0;overflow=hidden;fontSize=16;labelBackgroundColor=none;" vertex="1" parent="1u0SRNd5bN_RfT2QFFP8-63">
          <mxGeometry width="40" height="30" as="geometry">
            <mxRectangle width="40" height="30" as="alternateBounds" />
          </mxGeometry>
        </mxCell>
        <mxCell id="1u0SRNd5bN_RfT2QFFP8-65" value="Direccion" style="shape=partialRectangle;html=1;whiteSpace=wrap;connectable=0;fillColor=none;top=0;left=0;bottom=0;right=0;align=left;spacingLeft=6;overflow=hidden;fontSize=16;labelBackgroundColor=none;" vertex="1" parent="1u0SRNd5bN_RfT2QFFP8-63">
          <mxGeometry x="40" width="140" height="30" as="geometry">
            <mxRectangle width="140" height="30" as="alternateBounds" />
          </mxGeometry>
        </mxCell>
        <mxCell id="1u0SRNd5bN_RfT2QFFP8-66" value="Proveedores" style="shape=table;startSize=30;container=1;collapsible=0;childLayout=tableLayout;fixedRows=1;rowLines=0;fontStyle=0;fontSize=16;labelBackgroundColor=none;" vertex="1" parent="WIyWlLk6GJQsqaUBKTNV-1">
          <mxGeometry x="240" y="320" width="180" height="120" as="geometry" />
        </mxCell>
        <mxCell id="1u0SRNd5bN_RfT2QFFP8-67" value="" style="shape=tableRow;horizontal=0;startSize=0;swimlaneHead=0;swimlaneBody=0;top=0;left=0;bottom=0;right=0;collapsible=0;dropTarget=0;fillColor=none;points=[[0,0.5],[1,0.5]];portConstraint=eastwest;fontSize=16;labelBackgroundColor=none;" vertex="1" parent="1u0SRNd5bN_RfT2QFFP8-66">
          <mxGeometry y="30" width="180" height="30" as="geometry" />
        </mxCell>
        <mxCell id="1u0SRNd5bN_RfT2QFFP8-68" value="" style="shape=partialRectangle;html=1;whiteSpace=wrap;connectable=0;fillColor=none;top=0;left=0;bottom=0;right=0;overflow=hidden;pointerEvents=1;fontSize=16;labelBackgroundColor=none;" vertex="1" parent="1u0SRNd5bN_RfT2QFFP8-67">
          <mxGeometry width="40" height="30" as="geometry">
            <mxRectangle width="40" height="30" as="alternateBounds" />
          </mxGeometry>
        </mxCell>
        <mxCell id="1u0SRNd5bN_RfT2QFFP8-69" value="Id_Proveedor" style="shape=partialRectangle;html=1;whiteSpace=wrap;connectable=0;fillColor=none;top=0;left=0;bottom=0;right=0;align=left;spacingLeft=6;overflow=hidden;fontSize=16;labelBackgroundColor=none;" vertex="1" parent="1u0SRNd5bN_RfT2QFFP8-67">
          <mxGeometry x="40" width="140" height="30" as="geometry">
            <mxRectangle width="140" height="30" as="alternateBounds" />
          </mxGeometry>
        </mxCell>
        <mxCell id="1u0SRNd5bN_RfT2QFFP8-70" value="" style="shape=tableRow;horizontal=0;startSize=0;swimlaneHead=0;swimlaneBody=0;top=0;left=0;bottom=0;right=0;collapsible=0;dropTarget=0;fillColor=none;points=[[0,0.5],[1,0.5]];portConstraint=eastwest;fontSize=16;labelBackgroundColor=none;" vertex="1" parent="1u0SRNd5bN_RfT2QFFP8-66">
          <mxGeometry y="60" width="180" height="30" as="geometry" />
        </mxCell>
        <mxCell id="1u0SRNd5bN_RfT2QFFP8-71" value="" style="shape=partialRectangle;html=1;whiteSpace=wrap;connectable=0;fillColor=none;top=0;left=0;bottom=0;right=0;overflow=hidden;fontSize=16;labelBackgroundColor=none;" vertex="1" parent="1u0SRNd5bN_RfT2QFFP8-70">
          <mxGeometry width="40" height="30" as="geometry">
            <mxRectangle width="40" height="30" as="alternateBounds" />
          </mxGeometry>
        </mxCell>
        <mxCell id="1u0SRNd5bN_RfT2QFFP8-72" value="Nombre" style="shape=partialRectangle;html=1;whiteSpace=wrap;connectable=0;fillColor=none;top=0;left=0;bottom=0;right=0;align=left;spacingLeft=6;overflow=hidden;fontSize=16;labelBackgroundColor=none;" vertex="1" parent="1u0SRNd5bN_RfT2QFFP8-70">
          <mxGeometry x="40" width="140" height="30" as="geometry">
            <mxRectangle width="140" height="30" as="alternateBounds" />
          </mxGeometry>
        </mxCell>
        <mxCell id="1u0SRNd5bN_RfT2QFFP8-73" value="" style="shape=tableRow;horizontal=0;startSize=0;swimlaneHead=0;swimlaneBody=0;top=0;left=0;bottom=0;right=0;collapsible=0;dropTarget=0;fillColor=none;points=[[0,0.5],[1,0.5]];portConstraint=eastwest;fontSize=16;labelBackgroundColor=none;" vertex="1" parent="1u0SRNd5bN_RfT2QFFP8-66">
          <mxGeometry y="90" width="180" height="30" as="geometry" />
        </mxCell>
        <mxCell id="1u0SRNd5bN_RfT2QFFP8-74" value="" style="shape=partialRectangle;html=1;whiteSpace=wrap;connectable=0;fillColor=none;top=0;left=0;bottom=0;right=0;overflow=hidden;fontSize=16;labelBackgroundColor=none;" vertex="1" parent="1u0SRNd5bN_RfT2QFFP8-73">
          <mxGeometry width="40" height="30" as="geometry">
            <mxRectangle width="40" height="30" as="alternateBounds" />
          </mxGeometry>
        </mxCell>
        <mxCell id="1u0SRNd5bN_RfT2QFFP8-75" value="Telefono" style="shape=partialRectangle;html=1;whiteSpace=wrap;connectable=0;fillColor=none;top=0;left=0;bottom=0;right=0;align=left;spacingLeft=6;overflow=hidden;fontSize=16;labelBackgroundColor=none;" vertex="1" parent="1u0SRNd5bN_RfT2QFFP8-73">
          <mxGeometry x="40" width="140" height="30" as="geometry">
            <mxRectangle width="140" height="30" as="alternateBounds" />
          </mxGeometry>
        </mxCell>
      </root>
    </mxGraphModel>
  </diagram>
</mxfile>
